<?xml version="1.0" encoding="UTF-8"?>
<svg xmlns="http://www.w3.org/2000/svg" height="16px" viewBox="0 0 16 16" width="16px">
  <!-- Figura humana descansando / día de recuperación -->
  <!-- Cabeza -->
  <circle cx="8" cy="2.5" r="1.5" fill="#222222"/>
  <!-- Cuerpo recostado con brazos abiertos (postura de descanso) -->
  <path d="M 3 7 C 2.5 7 2 7.4 2 8 C 2 8.6 2.5 9 3 9 L 6.5 9 C 6.5 9.5 6.8 10.3 7.2 10.8 L 5.5 13 C 5.1 13.5 5.2 14.2 5.7 14.6 C 6.2 15 6.9 14.9 7.3 14.4 L 8 13.5 L 8.7 14.4 C 9.1 14.9 9.8 15 10.3 14.6 C 10.8 14.2 10.9 13.5 10.5 13 L 8.8 10.8 C 9.2 10.3 9.5 9.5 9.5 9 L 13 9 C 13.5 9 14 8.6 14 8 C 14 7.4 13.5 7 13 7 L 9.5 7 C 9.2 6.3 8.7 5.8 8 5.8 C 7.3 5.8 6.8 6.3 6.5 7 Z" fill="#222222"/>
</svg>
