<?xml version="1.0" encoding="UTF-8"?>
<svg xmlns="http://www.w3.org/2000/svg" height="16px" viewBox="0 0 16 16" width="16px">
  <!-- Ícono de calendario con días marcados -->
  <!-- Marco del calendario -->
  <path d="M 13 2 L 12 2 L 12 1 C 12 0.45 11.55 0 11 0 C 10.45 0 10 0.45 10 1 L 10 2 L 6 2 L 6 1 C 6 0.45 5.55 0 5 0 C 4.45 0 4 0.45 4 1 L 4 2 L 3 2 C 1.9 2 1 2.9 1 4 L 1 14 C 1 15.1 1.9 16 3 16 L 13 16 C 14.1 16 15 15.1 15 14 L 15 4 C 15 2.9 14.1 2 13 2 Z M 13 14 L 3 14 L 3 6 L 13 6 Z" fill="#222222"/>
  <!-- Cuadraditos del calendario (días) -->
  <rect x="4" y="8" width="2" height="2" rx="0.5" fill="#222222"/>
  <rect x="7" y="8" width="2" height="2" rx="0.5" fill="#222222"/>
  <rect x="10" y="8" width="2" height="2" rx="0.5" fill="#222222"/>
  <rect x="4" y="11" width="2" height="2" rx="0.5" fill="#222222"/>
  <rect x="7" y="11" width="2" height="2" rx="0.5" fill="#222222"/>
</svg>
