<?xml version="1.0" encoding="UTF-8"?>
<svg xmlns="http://www.w3.org/2000/svg" height="16px" viewBox="0 0 16 16" width="16px">
  <!-- Checkmark circle: círculo con tick adentro -->
  <path d="M 8 1 C 4.134 1 1 4.134 1 8 C 1 11.866 4.134 15 8 15 C 11.866 15 15 11.866 15 8 C 15 4.134 11.866 1 8 1 Z M 8 2.5 C 11.038 2.5 13.5 4.962 13.5 8 C 13.5 11.038 11.038 13.5 8 13.5 C 4.962 13.5 2.5 11.038 2.5 8 C 2.5 4.962 4.962 2.5 8 2.5 Z M 11.28 5.72 L 6.75 10.25 L 4.72 8.22 C 4.427 7.927 3.953 7.927 3.659 8.22 C 3.366 8.513 3.366 8.987 3.659 9.281 L 6.22 11.841 C 6.513 12.134 6.987 12.134 7.28 11.841 L 12.341 6.78 C 12.634 6.487 12.634 6.013 12.341 5.72 C 12.047 5.426 11.573 5.426 11.28 5.72 Z" fill="#222222"/>
</svg>
